HIERARCHY
ROOT Hips
{
    OFFSET 0.000000 0.000000 0.000000
    CHANNELS 6 Xposition Yposition Zposition Zrotation Xrotation Yrotation
    JOINT Spine
    {
        OFFSET -0.000000 14.517291 0.000000
        CHANNELS 3 Zrotation Xrotation Yrotation
        JOINT Spine1
        {
            OFFSET -0.000000 37.558300 0.000000
            CHANNELS 3 Zrotation Xrotation Yrotation
            JOINT Neck
            {
                OFFSET -0.000000 37.404057 3.400369
                CHANNELS 3 Zrotation Xrotation Yrotation
                JOINT Head
                {
                    OFFSET -0.000000 24.785618 -3.540803
                    CHANNELS 3 Zrotation Xrotation Yrotation
                    End Site
                    {
                        OFFSET -0.000000 35.408028 0.000000
                    }
                }
            }
            JOINT LeftShoulder
            {
                OFFSET 6.992933 33.973492 -0.192664
                CHANNELS 3 Zrotation Xrotation Yrotation
                JOINT LeftArm
                {
                    OFFSET 21.527611 0.000000 0.000000
                    CHANNELS 3 Zrotation Xrotation Yrotation
                    JOINT LeftForeArm
                    {
                        OFFSET 56.353916 0.000000 0.000000
                        CHANNELS 3 Zrotation Xrotation Yrotation
                        JOINT LeftHand
                        {
                            OFFSET 47.774071 0.000000 0.000000
                            CHANNELS 3 Zrotation Xrotation Yrotation
                            End Site
                            {
                                OFFSET 26.556021 0.000000 0.000000
                            }
                        }
                    }
                }
            }
            JOINT RightShoulder
            {
                OFFSET -7.065357 33.973492 -0.192664
                CHANNELS 3 Zrotation Xrotation Yrotation
                JOINT RightArm
                {
                    OFFSET -21.527611 0.000000 0.000000
                    CHANNELS 3 Zrotation Xrotation Yrotation
                    JOINT RightForeArm
                    {
                        OFFSET -56.353916 0.000000 0.000000
                        CHANNELS 3 Zrotation Xrotation Yrotation
                        JOINT RightHand
                        {
                            OFFSET -47.774071 0.000000 0.000000
                            CHANNELS 3 Zrotation Xrotation Yrotation
                            End Site
                            {
                                OFFSET -26.556021 0.000000 0.000000
                            }
                        }
                    }
                }
            }
        }
    }
    JOINT LeftUpLeg
    {
        OFFSET 17.704014 0.000000 0.000000
        CHANNELS 3 Zrotation Xrotation Yrotation
        JOINT LeftLeg
        {
            OFFSET -0.000000 -81.181816 0.000000
            CHANNELS 3 Zrotation Xrotation Yrotation
            JOINT LeftFoot
            {
                OFFSET -0.000000 -62.821102 0.000000
                CHANNELS 3 Zrotation Xrotation Yrotation
                JOINT LeftToeBase
                {
                    OFFSET -0.000000 -11.507608 26.556021
                    CHANNELS 3 Zrotation Xrotation Yrotation
                    End Site
                    {
                        OFFSET -0.000000 0.000000 7.081605
                    }
                }
            }
        }
    }
    JOINT RightUpLeg
    {
        OFFSET -17.704014 0.000000 0.000000
        CHANNELS 3 Zrotation Xrotation Yrotation
        JOINT RightLeg
        {
            OFFSET -0.000000 -81.181816 0.000000
            CHANNELS 3 Zrotation Xrotation Yrotation
            JOINT RightFoot
            {
                OFFSET -0.000000 -62.821102 0.000000
                CHANNELS 3 Zrotation Xrotation Yrotation
                JOINT RightToeBase
                {
                    OFFSET -0.000000 -11.507608 26.556021
                    CHANNELS 3 Zrotation Xrotation Yrotation
                    End Site
                    {
                        OFFSET -0.000000 0.000000 7.081605
                    }
                }
            }
        }
    }
}
MOTION
Frames:    5
Frame Time:    0.008333
-28.017239    148.700806    -80.565323    -1.176230    -5.246129    35.670399    -0.266627    3.986404    -0.524619    -2.860526    -0.678848    -0.193652    2.891683    5.542409    -15.623687    13.313574    -3.152983    -14.342813    2.429345    8.909257    -14.666033    -30.510004    18.869749    -55.129654    0.332526    -32.655140    -110.335480    -13.081093    -30.488605    -17.864866    0.699841    10.269855    -4.280774    27.801985    13.669327    41.330406    -6.061182    8.861053    38.772472    -22.839270    3.367340    36.582073    25.883921    -12.225178    -4.892282    -20.955824    45.323730    -17.702335    1.742046    -30.835409    48.820797    0.000000    0.000000    0.000000    -25.090700    -8.018793    -15.201200    7.502779    21.913486    -13.093301    14.446811    3.335976    -14.821497    0.000000    0.000000    0.000000    
-27.994846    148.733704    -80.731384    -1.159373    -5.201897    35.615711    -0.372753    3.979701    -0.461928    -2.770622    -0.664550    -0.173159    2.864010    5.560440    -15.693550    13.371441    -3.210090    -14.396648    2.470114    8.891139    -14.675382    -30.518730    18.956627    -55.125011    0.301947    -32.650707    -110.407341    -13.093518    -30.520542    -17.857941    0.691151    10.338281    -4.351903    27.788404    13.868923    41.325718    -6.202099    8.551274    38.557602    -22.813665    3.147437    36.370144    25.827999    -12.237105    -4.779406    -20.865402    45.286343    -17.814400    1.618789    -30.851246    48.787601    0.000000    0.000000    0.000000    -25.134895    -8.076886    -15.189905    7.466808    21.801777    -13.060955    14.450079    3.500799    -14.861707    0.000000    0.000000    0.000000    
-27.967024    148.764816    -80.896805    -1.158674    -5.149357    35.545067    -0.468911    3.941082    -0.406597    -2.710998    -0.642811    -0.155083    2.876988    5.598913    -15.747189    13.410583    -3.279755    -14.438631    2.516823    8.883464    -14.682540    -30.521439    18.999191    -55.067600    0.256851    -32.610149    -110.503426    -13.005306    -30.553190    -17.791107    0.697291    10.382510    -4.348821    27.869179    13.892414    41.261459    -6.222289    8.485980    38.336506    -22.780100    3.090227    36.354176    25.785641    -12.246983    -4.640476    -20.736912    45.345406    -17.923677    1.454073    -30.943466    48.599434    0.000000    0.000000    0.000000    -25.154985    -8.131259    -15.275023    7.372357    21.643875    -12.928594    14.445144    3.671989    -14.896778    0.000000    0.000000    0.000000    
-27.932293    148.795700    -81.072868    -1.162932    -5.102837    35.460152    -0.558880    3.926153    -0.349096    -2.653740    -0.651943    -0.136902    2.845953    5.672704    -15.807511    13.503761    -3.383950    -14.469213    2.548518    8.856960    -14.688070    -30.562943    18.970383    -54.908058    0.119963    -32.415737    -110.659081    -12.906846    -30.542000    -17.746883    0.697269    10.417263    -4.354359    27.895760    14.133212    41.203976    -6.438786    8.211513    38.156662    -22.740894    2.914711    36.246861    25.763977    -12.244358    -4.494507    -20.709967    45.283508    -17.913105    1.383891    -30.927185    48.486168    0.000000    0.000000    0.000000    -25.158037    -8.166289    -15.312613    7.279973    21.426083    -12.887976    14.412738    3.880239    -14.845805    0.000000    0.000000    0.000000    
-27.904606    148.827118    -81.245659    -1.169232    -5.072058    35.350159    -0.664322    3.935516    -0.270508    -2.566869    -0.674941    -0.112108    2.837137    5.690626    -15.866770    13.505468    -3.442369    -14.522951    2.555819    8.807052    -14.668391    -30.509163    19.022139    -54.759384    0.125123    -32.352406    -110.719162    -12.964118    -30.457315    -17.802786    0.702509    10.494635    -4.426981    27.891380    14.321943    41.278053    -6.593072    8.038342    37.885609    -22.710604    2.762780    36.352737    25.761646    -12.217501    -4.336069    -20.697432    45.220356    -17.924612    1.352059    -30.910320    48.412392    0.000000    0.000000    0.000000    -25.135538    -8.205525    -15.396306    7.156031    21.214083    -12.808414    14.380344    4.092309    -14.791601    0.000000    0.000000    0.000000    
